<svg xmlns="http://www.w3.org/2000/svg" width="16" height="16" viewBox="0 0 16 16"><title>icon_hourglass</title><path d="M12,3v.135a4.894,4.894,0,0,1-2,4.039L8.793,8,10,8.826a4.894,4.894,0,0,1,2,4.039V13H4v-.135A4.894,4.894,0,0,1,6,8.826L7.207,8,6,7.174A4.894,4.894,0,0,1,4,3.135V3h8m1-1H3V3.135A5.858,5.858,0,0,0,5.432,8,5.858,5.858,0,0,0,3,12.865V14H13V12.865A5.858,5.858,0,0,0,10.568,8,5.858,5.858,0,0,0,13,3.135V2Z" style="fill:#cbcbca"/><polygon points="14 1 2 1 2 2 14 2 14 1 14 1" style="fill:#cbcbca"/><polygon points="14 14 2 14 2 15 14 15 14 14 14 14" style="fill:#cbcbca"/><path d="M8,6.813A3.2,3.2,0,0,1,5.084,4h5.832A3.2,3.2,0,0,1,8,6.813Z" style="fill:#cbcbca"/></svg>