<svg xmlns="http://www.w3.org/2000/svg" viewBox="0 0 12.09 16"><title>Ressources_updater</title><g id="Layer_2" data-name="Layer 2"><g id="New_Icons" data-name="New Icons"><path d="M7.57,0H1.07A1.07,1.07,0,0,0,0,1.06V14.93A1.07,1.07,0,0,0,1.07,16H11a1.07,1.07,0,0,0,1.06-1.07V4.79ZM2.51,11.53a5,5,0,0,1-.77-6.07,5.23,5.23,0,0,1,.77-1l-.88-.88H4.27V6.23l-.89-.88a3.47,3.47,0,0,0-.72,1,3.73,3.73,0,0,0,3.9,5.31V13A5,5,0,0,1,2.51,11.53Zm7.84-1a4.86,4.86,0,0,1-.77,1l.89.88H7.82V9.76l.89.89a3.64,3.64,0,0,0,.73-1A3.74,3.74,0,0,0,5.52,4.29V3a5,5,0,0,1,4.83,7.51Z" style="fill:#ccc"/></g></g></svg>