<?xml version="1.0" encoding="utf-8"?>
<!-- Generator: Adobe Illustrator 25.4.1, SVG Export Plug-In . SVG Version: 6.00 Build 0)  -->
<svg version="1.1"
	 id="svg2963" sodipodi:docname="mat.svg" xmlns:cc="http://creativecommons.org/ns#" xmlns:dc="http://purl.org/dc/elements/1.1/" xmlns:inkscape="http://www.inkscape.org/namespaces/inkscape" xmlns:rdf="http://www.w3.org/1999/02/22-rdf-syntax-ns#" xmlns:sodipodi="http://sodipodi.sourceforge.net/DTD/sodipodi-0.dtd" xmlns:svg="http://www.w3.org/2000/svg"
	 xmlns="http://www.w3.org/2000/svg" xmlns:xlink="http://www.w3.org/1999/xlink" x="0px" y="0px" viewBox="0 0 48 48"
	 style="enable-background:new 0 0 48 48;" xml:space="preserve">
<style type="text/css">
	.st0{fill:#8A8A8A;stroke:#242424;stroke-width:0.5;stroke-linejoin:round;}
	.st1{fill:#A4A4A4;stroke:#242424;stroke-width:0.5;stroke-linejoin:round;}
	.st2{fill:#BBBBBB;stroke:#575757;stroke-width:0.5;stroke-linejoin:round;}
	.st3{fill:#BABABA;stroke:#828282;stroke-width:0.5;stroke-linejoin:round;}
	.st4{fill:#919191;stroke:#4E4E4E;stroke-width:0.5;stroke-linejoin:round;}
	
		.st5{fill:url(#path49302_00000058576572418433685210000015547965490721169282_);stroke:#737373;stroke-width:0.5;stroke-linejoin:round;}
	.st6{fill:url(#gradient_00000119077531202633034530000003182702431836467630_);}
	.st7{fill:url(#shadow_00000089559434803396290200000008684631013399864483_);}
	
		.st8{fill:url(#path49349_00000090973846290954194580000004108745515613432501_);stroke:#434343;stroke-width:0.5;stroke-linejoin:round;}
	.st9{fill:#5C5C5C;stroke:#434343;stroke-width:0.5;stroke-linejoin:round;}
	.st10{fill:#BCBCBC;stroke:#434343;stroke-width:0.5;stroke-linejoin:round;}
	
		.st11{fill:url(#path49431_00000160154783940727955590000012839322793413804203_);stroke:#191919;stroke-width:0.5;stroke-linejoin:round;}
	
		.st12{fill:url(#path49407_00000052106495379078987230000013359401768108870545_);stroke:#494949;stroke-width:0.5;stroke-linejoin:round;}
	
		.st13{fill:url(#path49389_00000044137964025586956000000009227123839094650527_);stroke:#888888;stroke-width:0.5;stroke-linejoin:round;}
	.st14{fill:url(#path73269_00000069367953713306171820000002178227056205972902_);}
	.st15{fill:url(#path72262_00000168093992437641104050000010246296716914723219_);}
	.st16{fill:url(#shadow_00000156562688456861278160000006916353805023526043_);}
	
		.st17{fill:url(#path49443_00000139290597809977986210000000899755177828704696_);stroke:#8D8D8D;stroke-width:0.5;stroke-linejoin:round;}
	
		.st18{fill:url(#path49365_00000168803544985521398170000002543184503049384611_);stroke:#9C9C9C;stroke-width:0.5;stroke-linejoin:round;}
	
		.st19{fill:url(#path49304_00000015341487764786654100000008992747376877209755_);stroke:#B4B4B4;stroke-width:0.5;stroke-linejoin:round;}
	.st20{fill:#9C9C9C;stroke:#545454;stroke-width:0.5;stroke-linejoin:round;}
	.st21{fill:#545454;stroke:#282828;stroke-width:0.5;stroke-linejoin:round;}
	.st22{fill:#717171;stroke:#393939;stroke-width:0.5;stroke-linejoin:round;}
	.st23{fill:url(#shadow_00000178206534138455112300000011760019920093747134_);}
	
		.st24{fill:url(#path49331_00000061432721211585861080000013595158006991762565_);stroke:#9B9B9B;stroke-width:0.5;stroke-linejoin:round;}
	
		.st25{fill:url(#path49373_00000060711632808715664910000006107999400571057549_);stroke:#565656;stroke-width:0.5;stroke-linejoin:round;}
	
		.st26{fill:url(#path49381_00000093168561928227397250000000606353077802402728_);stroke:#262626;stroke-width:0.5;stroke-linejoin:round;}
</style>
<sodipodi:namedview  bordercolor="#666666" borderopacity="0.16470588" fill="#e9b96e" id="base" inkscape:current-layer="layer1" inkscape:cx="31.054986" inkscape:cy="14.207679" inkscape:document-units="px" inkscape:grid-bbox="true" inkscape:guide-bbox="true" inkscape:pageopacity="0.0" inkscape:pageshadow="2" inkscape:showpageshadow="false" inkscape:window-height="1537" inkscape:window-maximized="1" inkscape:window-width="2560" inkscape:window-x="-8" inkscape:window-y="-8" inkscape:zoom="26.982694" pagecolor="#ffffff" showgrid="false" showguides="true" stroke="#c17d11">
	</sodipodi:namedview>
<g id="layer1" inkscape:groupmode="layer" inkscape:label="Layer 1">
	<g id="White_cube">
		<path id="path49441" inkscape:connector-curvature="0" class="st0" d="M45.1,25.1l-0.5,10.6l-8.2,4.7l0.4-10.9L45.1,25.1z"/>
		<path id="path49439" inkscape:connector-curvature="0" class="st1" d="M36.4,40.4c0-0.4,0.4-10.9,0.4-10.9l-6.6-3.1l-3.6,3
			l6.3,9.2L36.4,40.4z"/>
		<path id="path49405" inkscape:connector-curvature="0" class="st2" d="M45.1,25.1L38.2,22l-7.8,0.5l1.7,4.7l4.8,2.2L45.1,25.1z"/>
	</g>
	<g id="Yellow">
		<path id="path49339" inkscape:connector-curvature="0" sodipodi:nodetypes="ccccc" class="st3" d="M15.1,3.6l0.1,12.6l8.5-1.5
			l0-7.6L15.1,3.6z"/>
		<path id="path49347" inkscape:connector-curvature="0" sodipodi:nodetypes="ccccc" class="st4" d="M32.4,3.6l-0.1,6.3l-8.5,4.9
			l0-7.6L32.4,3.6z"/>
		
			<radialGradient id="path49302_00000030479280873607226880000006416393547938057347_" cx="23.7426" cy="-636.6757" r="8.898" gradientTransform="matrix(1 0 0 -0.4163 0 -261.3099)" gradientUnits="userSpaceOnUse">
			<stop  offset="0" style="stop-color:#C9C9C9"/>
			<stop  offset="1" style="stop-color:#C9C9C9"/>
		</radialGradient>
		
			<path id="path49302" inkscape:connector-curvature="0" style="fill:url(#path49302_00000030479280873607226880000006416393547938057347_);stroke:#737373;stroke-width:0.5;stroke-linejoin:round;" d="
			M15.1,3.6l8.7-3.3l8.6,3.3l-8.7,3.6L15.1,3.6z"/>
	</g>
	
		<radialGradient id="gradient_00000101081495012782726290000006667230693403788456_" cx="48.8594" cy="4.1297" r="9.5156" gradientTransform="matrix(1 0 0 -0.9967 -13.0825 35.4105)" gradientUnits="userSpaceOnUse">
		<stop  offset="0" style="stop-color:#8E8E8E;stop-opacity:0.1892"/>
		<stop  offset="1" style="stop-color:#8E8E8E;stop-opacity:0"/>
	</radialGradient>
	
		<path id="gradient" inkscape:connector-curvature="0" sodipodi:nodetypes="ccccccccccc" style="fill:url(#gradient_00000101081495012782726290000006667230693403788456_);" d="
		M38.1,22.1l-7.8,0.5l1.7,4.6l-1.8-0.8l-3.6,3l6.3,9.3l3.5,1.8v0.1l8.2-4.8L45,25.2L38.1,22.1z"/>
	
		<radialGradient id="shadow_00000171683112227740349390000016371751277602993027_" cx="86.8171" cy="-794.5063" r="6.4211" gradientTransform="matrix(0.8857 0 0 -0.3746 -40.3641 -273.2543)" gradientUnits="userSpaceOnUse">
		<stop  offset="0" style="stop-color:#0F0F0F"/>
		<stop  offset="1" style="stop-color:#0F0F0F;stop-opacity:0"/>
	</radialGradient>
	
		<path id="shadow_00000014620042290025712570000014549469772800378286_" sodipodi:cx="23.978432" sodipodi:cy="31.542671" sodipodi:rx="6.4204545" sodipodi:ry="2.4633582" sodipodi:type="arc" style="fill:url(#shadow_00000171683112227740349390000016371751277602993027_);" d="
		M42.2,24.4c0,1.3-2.5,2.4-5.7,2.4s-5.7-1.1-5.7-2.4c0-1.3,2.5-2.4,5.7-2.4C39.7,22,42.2,23.1,42.2,24.4
		C42.2,24.4,42.2,24.4,42.2,24.4z"/>
	<g id="Pale_blue">
		
			<linearGradient id="path49349_00000142147017084308516640000001052772851494773632_" gradientUnits="userSpaceOnUse" x1="28.2363" y1="40.7207" x2="36.9126" y2="26.162" gradientTransform="matrix(1 0 0 -1 0 50)">
			<stop  offset="0" style="stop-color:#999999"/>
			<stop  offset="1" style="stop-color:#797979"/>
		</linearGradient>
		
			<path id="path49349" inkscape:connector-curvature="0" sodipodi:nodetypes="ccccc" style="fill:url(#path49349_00000142147017084308516640000001052772851494773632_);stroke:#434343;stroke-width:0.5;stroke-linejoin:round;" d="
			M27.6,8.8l0.2,11.5l9.2,4.2l0.4-11.9L27.6,8.8z"/>
		<path id="path49357" inkscape:connector-curvature="0" sodipodi:nodetypes="ccccc" class="st9" d="M37.4,12.8l8.6-4l-0.6,11.5
			L37,24.6L37.4,12.8z"/>
		<path id="path49323" inkscape:connector-curvature="0" class="st10" d="M27.6,8.8l8.8-3.7l9.5,3.7l-8.6,4L27.6,8.8z"/>
	</g>
	<g id="Red">
		
			<radialGradient id="path49431_00000070104411074364276560000017968676338531800498_" cx="15.7526" cy="145.005" r="5.3427" gradientTransform="matrix(1 0 0 -1.3579 0 230.2457)" gradientUnits="userSpaceOnUse">
			<stop  offset="0" style="stop-color:#323232"/>
			<stop  offset="1" style="stop-color:#808080"/>
		</radialGradient>
		
			<path id="path49431" inkscape:connector-curvature="0" style="fill:url(#path49431_00000070104411074364276560000017968676338531800498_);stroke:#191919;stroke-width:0.5;stroke-linejoin:round;" d="
			M11,40.4c0-0.4-0.4-11-0.4-11l6.6-3l3.6,3l-6.3,9.2L11,40.4z"/>
		
			<radialGradient id="path49407_00000011741325146391209250000001553181137181083831_" cx="6.6842" cy="221.7132" r="4.587" gradientTransform="matrix(1 0 0 -1.7236 0 414.8769)" gradientUnits="userSpaceOnUse">
			<stop  offset="0" style="stop-color:#CCCCCC"/>
			<stop  offset="1" style="stop-color:#7C7C7C"/>
		</radialGradient>
		
			<path id="path49407" inkscape:connector-curvature="0" style="fill:url(#path49407_00000011741325146391209250000001553181137181083831_);stroke:#494949;stroke-width:0.5;stroke-linejoin:round;" d="
			M2.3,25.1l0.5,10.6l8.2,4.7l-0.4-10.9L2.3,25.1z"/>
		
			<radialGradient id="path49389_00000132786969261062141540000010692581845769629876_" cx="9.7133" cy="-220.4287" r="7.6335" gradientTransform="matrix(1 0 0 -0.6646 0 -121.8363)" gradientUnits="userSpaceOnUse">
			<stop  offset="0" style="stop-color:#C2C2C2"/>
			<stop  offset="1" style="stop-color:#BCBCBC"/>
		</radialGradient>
		
			<path id="path49389" inkscape:connector-curvature="0" sodipodi:nodetypes="cccccc" style="fill:url(#path49389_00000132786969261062141540000010692581845769629876_);stroke:#888888;stroke-width:0.5;stroke-linejoin:round;" d="
			M2.3,25.1l10.1-4.4l8.4,3.9l-5.4,2.7l-4.8,2.2L2.3,25.1z"/>
		
			<radialGradient id="path73269_00000026133338234135612420000008252391860513047185_" cx="-608.3582" cy="166.1142" r="3.677" gradientTransform="matrix(-2.1071 0.7848 -0.646 -1.7374 -1159.3877 798.808)" gradientUnits="userSpaceOnUse">
			<stop  offset="0" style="stop-color:#CCCCCC;stop-opacity:0.6577"/>
			<stop  offset="1" style="stop-color:#CCCCCC;stop-opacity:0"/>
		</radialGradient>
		
			<path id="path73269" inkscape:connector-curvature="0" sodipodi:nodetypes="ccccc" style="fill:url(#path73269_00000026133338234135612420000008252391860513047185_);" d="
			M18.6,30.1c-2.5,0.2-4,3.8-7.4,4.2l0.2,5.5l6.9-4.3L18.6,30.1z"/>
		
			<radialGradient id="path72262_00000080908441326002852550000010274783335401524640_" cx="-202.2752" cy="349.5374" r="3.7987" gradientTransform="matrix(2.1071 0.7848 0.646 -1.7374 206.9942 798.808)" gradientUnits="userSpaceOnUse">
			<stop  offset="0" style="stop-color:#CCCCCC;stop-opacity:0.6577"/>
			<stop  offset="1" style="stop-color:#CCCCCC;stop-opacity:0"/>
		</radialGradient>
		
			<path id="path72262" inkscape:connector-curvature="0" sodipodi:nodetypes="ccccc" style="fill:url(#path72262_00000080908441326002852550000010274783335401524640_);" d="
			M3,30.1c2.5,0.2,4,3.8,7.4,4.2l0.2,5.5l-7.3-4.3L3,30.1z"/>
	</g>
	
		<radialGradient id="shadow_00000008834460889509963440000011285075515345780923_" cx="57.4976" cy="-794.5063" r="6.4211" gradientTransform="matrix(0.8857 0 0 -0.3746 -40.3641 -273.2543)" gradientUnits="userSpaceOnUse">
		<stop  offset="0" style="stop-color:#0F0F0F"/>
		<stop  offset="1" style="stop-color:#0F0F0F;stop-opacity:0"/>
	</radialGradient>
	
		<path id="shadow_00000134941581895653892680000004517550914848936607_" sodipodi:cx="23.978432" sodipodi:cy="31.542671" sodipodi:rx="6.4204545" sodipodi:ry="2.4633582" sodipodi:type="arc" style="fill:url(#shadow_00000008834460889509963440000011285075515345780923_);" d="
		M16.2,24.4c0,1.3-2.5,2.4-5.7,2.4s-5.7-1.1-5.7-2.4c0-1.3,2.5-2.4,5.7-2.4C13.7,22,16.2,23.1,16.2,24.4
		C16.2,24.4,16.2,24.4,16.2,24.4z"/>
	<g id="Glass">
		
			<radialGradient id="path49443_00000075141327304424866130000015680901768181682090_" cx="14.9007" cy="16.7815" r="6.5189" gradientUnits="userSpaceOnUse">
			<stop  offset="0" style="stop-color:#858585"/>
			<stop  offset="1" style="stop-color:#616161"/>
		</radialGradient>
		
			<path id="path49443" inkscape:connector-curvature="0" sodipodi:nodetypes="ccccc" style="fill:url(#path49443_00000075141327304424866130000015680901768181682090_);stroke:#8D8D8D;stroke-width:0.5;stroke-linejoin:round;" d="
			M19.8,9l-0.2,11.4l-9.2,4.2L10,12.9L19.8,9z"/>
		
			<radialGradient id="path49365_00000130638171684840439190000011181018584571932822_" cx="5.9647" cy="16.7437" r="6.4043" gradientUnits="userSpaceOnUse">
			<stop  offset="0" style="stop-color:#858585"/>
			<stop  offset="1" style="stop-color:#616161"/>
		</radialGradient>
		
			<path id="path49365" inkscape:connector-curvature="0" style="fill:url(#path49365_00000130638171684840439190000011181018584571932822_);stroke:#9C9C9C;stroke-width:0.5;stroke-linejoin:round;" d="
			M1.5,8.9l8.6,4l0.5,11.7L2,20.3L1.5,8.9z"/>
		
			<linearGradient id="path49304_00000169552868741822396870000002026108057421639056_" gradientUnits="userSpaceOnUse" x1="1.4589" y1="8.985" x2="19.7851" y2="8.985">
			<stop  offset="0" style="stop-color:#858585"/>
			<stop  offset="1" style="stop-color:#616161"/>
		</linearGradient>
		
			<path id="path49304" inkscape:connector-curvature="0" style="fill:url(#path49304_00000169552868741822396870000002026108057421639056_);stroke:#B4B4B4;stroke-width:0.5;stroke-linejoin:round;" d="
			M11,5.1L19.8,9L10,12.9l-8.6-4L11,5.1z"/>
	</g>
	<g id="Blue">
		<path id="path49397" inkscape:connector-curvature="0" class="st20" d="M14.5,31.6l5.2-2.7l8.4,0.3l4.8,2.3l-9.2,5L14.5,31.6z"/>
		<path id="path49423" inkscape:connector-curvature="0" class="st21" d="M23.8,36.5l9.1-4.9l-0.2,11l-9,5.1L23.8,36.5z"/>
		<path id="path49415" inkscape:connector-curvature="0" class="st22" d="M14.7,42.6l-0.2-11l9.3,4.8l-0.1,11.2L14.7,42.6z"/>
	</g>
	
		<radialGradient id="shadow_00000091709846123552619450000008908296518231919034_" cx="23.9784" cy="-630.8746" r="6.4211" gradientTransform="matrix(1 0 0 -0.4286 -0.3145 -239.2782)" gradientUnits="userSpaceOnUse">
		<stop  offset="0" style="stop-color:#0F0F0F"/>
		<stop  offset="1" style="stop-color:#0F0F0F;stop-opacity:0"/>
	</radialGradient>
	
		<path id="shadow" sodipodi:cx="23.978432" sodipodi:cy="31.542671" sodipodi:rx="6.4204545" sodipodi:ry="2.4633582" sodipodi:type="arc" style="fill:url(#shadow_00000091709846123552619450000008908296518231919034_);" d="
		M30.1,31.1c0,1.5-2.9,2.8-6.4,2.8s-6.4-1.2-6.4-2.8c0-1.5,2.9-2.8,6.4-2.8C27.2,28.3,30.1,29.6,30.1,31.1
		C30.1,31.1,30.1,31.1,30.1,31.1z"/>
	<g id="Orange">
		<g id="g49940">
			
				<linearGradient id="path49331_00000137835751076387783740000005250268719211951794_" gradientUnits="userSpaceOnUse" x1="13.7419" y1="35.1306" x2="33.6283" y2="35.1306" gradientTransform="matrix(1 0 0 -1 0 50)">
				<stop  offset="0" style="stop-color:#C9C9C9"/>
				<stop  offset="1" style="stop-color:#CCCCCC"/>
			</linearGradient>
			
				<path id="path49331" inkscape:connector-curvature="0" style="fill:url(#path49331_00000137835751076387783740000005250268719211951794_);stroke:#9B9B9B;stroke-width:0.5;stroke-linejoin:round;" d="
				M14,14.7l9.8-4.2l9.6,4.2l-9.7,4.4L14,14.7z"/>
		</g>
		<g id="g49931">
			
				<linearGradient id="path49373_00000067197342071212744730000008953397005858027414_" gradientUnits="userSpaceOnUse" x1="14.2978" y1="34.9582" x2="23.8717" y2="19.0089" gradientTransform="matrix(1 0 0 -1 0 50)">
				<stop  offset="0" style="stop-color:#CCCCCC"/>
				<stop  offset="1" style="stop-color:#C2C2C2"/>
			</linearGradient>
			
				<path id="path49373" inkscape:connector-curvature="0" style="fill:url(#path49373_00000067197342071212744730000008953397005858027414_);stroke:#565656;stroke-width:0.5;stroke-linejoin:round;" d="
				M14,14.7l9.7,4.4l0,12.3l-9.4-4.8L14,14.7z"/>
		</g>
		<g id="g49949">
			
				<linearGradient id="path49381_00000116229150949556339330000012106237446364117660_" gradientUnits="userSpaceOnUse" x1="23.5301" y1="30.6399" x2="33.1899" y2="23.508" gradientTransform="matrix(1 0 0 -1 0 50)">
				<stop  offset="0" style="stop-color:#CCCCCC"/>
				<stop  offset="1" style="stop-color:#979797"/>
			</linearGradient>
			
				<path id="path49381" inkscape:connector-curvature="0" style="fill:url(#path49381_00000116229150949556339330000012106237446364117660_);stroke:#262626;stroke-width:0.5;stroke-linejoin:round;" d="
				M23.7,19.1l9.7-4.4l-0.3,11.9l-9.4,4.8L23.7,19.1z"/>
		</g>
	</g>
</g>
</svg>
